Coordinates
version=1
nRows=26
nColumns=24
inDegrees=yes

Units are S.I. units (second, meters, Newtons, ...)
Angles are in degrees.

endheader
time	pelvis_tilt	pelvis_list	pelvis_rotation	pelvis_tx	pelvis_ty	pelvis_tz	hip_flexion_r	hip_adduction_r	hip_rotation_r	knee_angle_r	ankle_angle_r	subtalar_angle_r	mtp_angle_r	hip_flexion_l	hip_adduction_l	hip_rotation_l	knee_angle_l	ankle_angle_l	subtalar_angle_l	mtp_angle_l	lumbar_extension	lumbar_bending	lumbar_rotation
      7.38000000	     58.46014331	    -18.61923359	     -1.23574725	      0.52760613	      0.95212664	     -0.23060148	     40.92056678	     -1.79710982	    -20.28656610	    -74.70582702	     -2.55505316	      0.00000000	      0.00000000	     16.58515391	    -12.09507616	      3.38355126	    -55.33726568	    -27.80580133	      0.00000000	      0.00000000	      0.00000000	      0.00000000	      0.00000000
      7.39000000	     58.45840728	    -18.65582927	     -1.28027370	      0.52762993	      0.95218940	     -0.23072217	     41.02954695	     -1.81805321	    -20.41303398	    -74.90605101	     -2.17493505	      0.00000000	      0.00000000	     16.46352758	    -12.11171319	      3.36773008	    -55.65242361	    -27.85334104	      0.00000000	      0.00000000	      0.00000000	      0.00000000	      0.00000000
      7.40000000	     58.43976313	    -18.69156286	     -1.31939700	      0.52764605	      0.95223170	     -0.23072843	     41.13344828	     -1.84566893	    -20.52006733	    -75.08096089	     -1.82077111	      0.00000000	      0.00000000	     16.35667067	    -12.13456675	      3.35577025	    -56.00227243	    -27.90812245	      0.00000000	      0.00000000	      0.00000000	      0.00000000	      0.00000000
      7.41000000	     58.41022712	    -18.72793142	     -1.34397511	      0.52766389	      0.95226043	     -0.23062887	     41.22687116	     -1.88745432	    -20.59996343	    -75.23069223	     -1.51632512	      0.00000000	      0.00000000	     16.26516507	    -12.15154831	      3.36274678	    -56.38932705	    -27.96043042	      0.00000000	      0.00000000	      0.00000000	      0.00000000	      0.00000000
      7.42000000	     58.37890728	    -18.75594522	     -1.34964138	      0.52771578	      0.95228026	     -0.23059639	     41.30136117	     -1.94487317	    -20.66640238	    -75.35670888	     -1.27721429	      0.00000000	      0.00000000	     16.18325368	    -12.15295324	      3.40082504	    -56.81799036	    -27.99950738	      0.00000000	      0.00000000	      0.00000000	      0.00000000	      0.00000000
      7.43000000	     58.35498713	    -18.76659440	     -1.33609526	      0.52778683	      0.95230625	     -0.23070004	     41.34558725	     -2.02134069	    -20.74145992	    -75.45694318	     -1.10733869	      0.00000000	      0.00000000	     16.10364441	    -12.13717935	      3.47634920	    -57.29250294	    -28.01578566	      0.00000000	      0.00000000	      0.00000000	      0.00000000	      0.00000000
      7.44000000	     58.34469570	    -18.75881461	     -1.30559604	      0.52783287	      0.95234836	     -0.23084516	     41.34639208	     -2.12394719	    -20.84294033	    -75.52364029	     -0.99864505	      0.00000000	      0.00000000	     16.02173669	    -12.11148610	      3.58724943	    -57.81498840	    -28.00309991	      0.00000000	      0.00000000	      0.00000000	      0.00000000	      0.00000000
      7.45000000	     58.34957235	    -18.73796811	     -1.26217988	      0.52785602	      0.95238367	     -0.23095299	     41.29113362	     -2.25483413	    -20.98135637	    -75.54561845	     -0.93415275	      0.00000000	      0.00000000	     15.93738049	    -12.08616605	      3.72092452	    -58.38461438	    -27.96014573	      0.00000000	      0.00000000	      0.00000000	      0.00000000	      0.00000000
      7.46000000	     58.36711026	    -18.71153743	     -1.21150732	      0.52788150	      0.95240467	     -0.23104498	     41.17143663	     -2.40394764	    -21.16066959	    -75.51208391	     -0.89302606	      0.00000000	      0.00000000	     15.85440240	    -12.06853232	      3.85522103	    -58.99792713	    -27.89042713	      0.00000000	      0.00000000	      0.00000000	      0.00000000	      0.00000000
      7.47000000	     58.39244723	    -18.68654831	     -1.16136235	      0.52790927	      0.95243913	     -0.23114993	     40.98602458	     -2.55195207	    -21.37595094	    -75.41504829	     -0.85598131	      0.00000000	      0.00000000	     15.77840516	    -12.06370409	      3.96458393	    -59.65010674	    -27.80071017	      0.00000000	      0.00000000	      0.00000000	      0.00000000	      0.00000000
      7.48000000	     58.41995038	    -18.66763727	     -1.12215893	      0.52794171	      0.95248165	     -0.23123395	     40.74114778	     -2.67827992	    -21.61152333	    -75.25084047	     -0.80973970	      0.00000000	      0.00000000	     15.71396832	    -12.07886636	      4.02848554	    -60.33635866	    -27.69894876	      0.00000000	      0.00000000	      0.00000000	      0.00000000	      0.00000000
      7.49000000	     58.44538168	    -18.65582075	     -1.10564221	      0.52799175	      0.95249787	     -0.23124929	     40.45001510	     -2.76652553	    -21.84500228	    -75.02198441	     -0.74969961	      0.00000000	      0.00000000	     15.66317321	    -12.12331780	      4.03707577	    -61.05239882	    -27.59261030	      0.00000000	      0.00000000	      0.00000000	      0.00000000	      0.00000000
      7.50000000	     58.46658488	    -18.64981171	     -1.12100500	      0.52803635	      0.95248524	     -0.23118112	     40.13025587	     -2.80693743	    -22.05426431	    -74.73848456	     -0.68014627	      0.00000000	      0.00000000	     15.62612910	    -12.20366909	      3.99233720	    -61.79398252	    -27.48770557	      0.00000000	      0.00000000	      0.00000000	      0.00000000	      0.00000000
      7.51000000	     58.48157616	    -18.64803364	     -1.17051683	      0.52803663	      0.95246127	     -0.23104863	     39.79872148	     -2.79757785	    -22.22272295	    -74.41708979	     -0.61202040	      0.00000000	      0.00000000	     15.60254234	    -12.31902366	      3.90623011	    -62.55631426	    -27.38842030	      0.00000000	      0.00000000	      0.00000000	      0.00000000	      0.00000000
      7.52000000	     58.48702746	    -18.64920715	     -1.24735654	      0.52801403	      0.95242831	     -0.23088573	     39.46700446	     -2.74447965	    -22.34154562	    -74.07837636	     -0.55909201	      0.00000000	      0.00000000	     15.59310369	    -12.45973726	      3.79756582	    -63.33389113	    -27.29713067	      0.00000000	      0.00000000	      0.00000000	      0.00000000	      0.00000000
      7.53000000	     58.47971564	    -18.65177461	     -1.33697346	      0.52802618	      0.95239508	     -0.23071756	     39.14099637	     -2.66055920	    -22.40958248	    -73.74333713	     -0.53370664	      0.00000000	      0.00000000	     15.59983750	    -12.61008525	      3.68843620	    -64.12064332	    -27.21461034	      0.00000000	      0.00000000	      0.00000000	      0.00000000	      0.00000000
      7.54000000	     58.45944219	    -18.65286053	     -1.42173891	      0.52808405	      0.95238596	     -0.23055094	     38.82342694	     -2.56284136	    -22.43253248	    -73.43152024	     -0.54314712	      0.00000000	      0.00000000	     15.62501407	    -12.75317049	      3.60047277	    -64.91004579	    -27.14029841	      0.00000000	      0.00000000	      0.00000000	      0.00000000	      0.00000000
      7.55000000	     58.42990220	    -18.64838824	     -1.48649170	      0.52816531	      0.95239912	     -0.23037153	     38.51617631	     -2.46889472	    -22.42133189	    -73.16058752	     -0.58721296	      0.00000000	      0.00000000	     15.66914512	    -12.87568846	      3.55116311	    -65.69523411	    -27.07261720	      0.00000000	      0.00000000	      0.00000000	      0.00000000	      0.00000000
      7.56000000	     58.39682900	    -18.63433870	     -1.52226677	      0.52826133	      0.95240295	     -0.23017439	     38.22133784	     -2.39321033	    -22.38954475	    -72.94552992	     -0.65733836	      0.00000000	      0.00000000	     15.72968655	    -12.97062367	      3.55067641	    -66.46930602	    -27.00941250	      0.00000000	      0.00000000	      0.00000000	      0.00000000	      0.00000000
      7.57000000	     58.36509243	    -18.60791293	     -1.52731107	      0.52836199	      0.95239116	     -0.23000806	     37.94115859	     -2.34445076	    -22.35013476	    -72.79607371	     -0.73754884	      0.00000000	      0.00000000	     15.80172501	    -13.03732392	      3.59977615	    -67.22566477	    -26.94850987	      0.00000000	      0.00000000	      0.00000000	      0.00000000	      0.00000000
      7.58000000	     58.33598315	    -18.56912019	     -1.50603659	      0.52844672	      0.95239786	     -0.22993630	     37.67671143	     -2.32520292	    -22.31198919	    -72.71304029	     -0.80747937	      0.00000000	      0.00000000	     15.88003336	    -13.07951221	      3.68938440	    -67.95809637	    -26.88824626	      0.00000000	      0.00000000	      0.00000000	      0.00000000	      0.00000000
      7.59000000	     58.30588825	    -18.52256536	     -1.46715967	      0.52850496	      0.95244795	     -0.22991211	     37.42640051	     -2.33404008	    -22.27751069	    -72.68685418	     -0.84715424	      0.00000000	      0.00000000	     15.96093093	    -13.10260375	      3.80242723	    -68.66052634	    -26.82778234	      0.00000000	      0.00000000	      0.00000000	      0.00000000	      0.00000000
      7.60000000	     58.26832106	    -18.47311697	     -1.42237820	      0.52855348	      0.95253602	     -0.22982690	     37.18685928	     -2.36464817	    -22.24551460	    -72.70126420	     -0.84229350	      0.00000000	      0.00000000	     16.04280861	    -13.11190479	      3.91809463	    -69.32676504	    -26.76716327	      0.00000000	      0.00000000	      0.00000000	      0.00000000	      0.00000000
      7.61000000	     58.21771138	    -18.41822355	     -1.38487024	      0.52864457	      0.95261744	     -0.22972385	     36.95602178	     -2.40327892	    -22.21683762	    -72.74087822	     -0.78840016	      0.00000000	      0.00000000	     16.12464417	    -13.11269593	      4.01753624	    -69.95076756	    -26.70735719	      0.00000000	      0.00000000	      0.00000000	      0.00000000	      0.00000000
      7.62000000	     58.15246948	    -18.35338532	     -1.36540546	      0.52880279	      0.95264813	     -0.22970615	     36.73675067	     -2.43583952	    -22.19201470	    -72.79658442	     -0.69227552	      0.00000000	      0.00000000	     16.20346657	    -13.11170974	      4.08896291	    -70.52760073	    -26.65036099	      0.00000000	      0.00000000	      0.00000000	      0.00000000	      0.00000000
      7.63000000	     58.07614558	    -18.28266835	     -1.36840181	      0.52897710	      0.95265406	     -0.22972669	     36.53716058	     -2.45791755	    -22.16567365	    -72.86606520	     -0.57006840	      0.00000000	      0.00000000	     16.27371797	    -13.11729869	      4.12970395	    -71.05457860	    -26.59907117	      0.00000000	      0.00000000	      0.00000000	      0.00000000	      0.00000000
